<?xml version="1.0" encoding="UTF-8" standalone="no"?>
<!-- Created with Inkscape (http://www.inkscape.org/) -->

<svg
   width="150.97124mm"
   height="197.85544mm"
   viewBox="0 0 150.97124 197.85544"
   version="1.1"
   id="svg1"
   xml:space="preserve"
   xmlns="http://www.w3.org/2000/svg"
   xmlns:svg="http://www.w3.org/2000/svg"><defs
     id="defs1" /><g
     id="layer4"
     style="fill:#2f4f4f;fill-opacity:1;fill-rule:nonzero;stroke:#2f4f4f;stroke-opacity:1"><path
       style="display:inline;fill:#2f4f4f;fill-opacity:1;fill-rule:nonzero;stroke:#2f4f4f;stroke-width:4.59999;stroke-dasharray:none;stroke-opacity:1"
       d="m 38.789382,120.20548 c -1.492885,0.34627 -2.696716,1.10547 -3.328765,2.6815 -0.953576,1.32832 -0.805414,2.7568 -0.416097,4.2072 0.716579,1.33052 1.513366,2.5541 2.958904,2.91267 1.893408,0.1417 3.775844,0.14077 5.547945,-1.29452 1.189897,-0.90235 1.321373,-2.54559 1.294521,-4.29966 -0.221476,-2.22696 -1.264244,-3.35886 -2.58904,-4.11473 -1.041427,-0.43121 -2.179726,-0.52336 -3.467468,-0.0925 z"
       id="path12" /><path
       style="display:inline;fill:#2f4f4f;fill-opacity:1;fill-rule:nonzero;stroke:#2f4f4f;stroke-width:4.19069;stroke-dasharray:none;stroke-opacity:1"
       d="m 49.297291,71.954129 c -0.614776,1.25325 -0.771563,2.54023 -0.02239,3.89392 0.389169,1.43803 1.483229,2.15598 2.731584,2.71633 1.352065,0.26028 2.67478,0.40238 3.760058,-0.41159 1.189914,-1.25502 2.272799,-2.58441 2.279236,-4.66185 0.04767,-1.35957 -1.037089,-2.39859 -2.291256,-3.38967 -1.700139,-1.12598 -3.099697,-1.04163 -4.396047,-0.54167 -0.903961,0.48687 -1.624247,1.23736 -2.06122,2.3945 z"
       id="path12-3" /><path
       style="display:inline;fill:#2f4f4f;fill-opacity:1;fill-rule:nonzero;stroke:#2f4f4f;stroke-width:4.19069;stroke-dasharray:none;stroke-opacity:1"
       d="m 86.568722,80.971479 c -0.61478,1.25325 -0.77156,2.54023 -0.0224,3.89392 0.38917,1.43803 1.48323,2.15598 2.73158,2.71633 1.35207,0.26028 2.67478,0.40238 3.76006,-0.41159 1.18991,-1.25502 2.2728,-2.58441 2.27924,-4.66185 0.0477,-1.35957 -1.03709,-2.39859 -2.29126,-3.38967 -1.70014,-1.12598 -3.0997,-1.04163 -4.39605,-0.54167 -0.90396,0.48687 -1.62424,1.23736 -2.06122,2.3945 z"
       id="path12-3-2" /><path
       style="display:inline;fill:#2f4f4f;fill-opacity:1;fill-rule:nonzero;stroke:#2f4f4f;stroke-width:3.82718;stroke-dasharray:none;stroke-opacity:1"
       d="m 126.8891,134.13653 c -0.56929,1.12879 -0.71447,2.28796 -0.0208,3.50722 0.36037,1.29522 1.37347,1.94187 2.52944,2.44657 1.25201,0.23444 2.47684,0.36242 3.4818,-0.37071 1.10186,-1.13039 2.10461,-2.32776 2.11057,-4.19889 0.0442,-1.22455 -0.96034,-2.16039 -2.1217,-3.05304 -1.57432,-1.01417 -2.87031,-0.93819 -4.07073,-0.48788 -0.83706,0.43852 -1.50404,1.11448 -1.90868,2.1567 z"
       id="path12-3-6" /></g><g
     id="layer2"
     style="stroke:#2f4f4f;stroke-opacity:1"><path
       style="fill:none;fill-opacity:1;fill-rule:nonzero;stroke:#2f4f4f;stroke-width:4.6;stroke-dasharray:none;stroke-opacity:1"
       d="m 74.342462,194.54794 c 13.86486,0.39872 22.99532,-7.61114 22.93151,-7.76712 2.968408,-2.51551 5.476628,-5.2364 7.952048,-8.73801 1.39137,-2.38493 2.33881,-4.26874 3.64404,-7.47282 1.25203,-3.10685 1.94052,-6.87531 2.68071,-10.494 0.46951,-2.55689 0.77229,-5.16937 0.98074,-7.81329 0.16771,-5.43087 -0.33466,-9.07487 -0.65383,-13.2074 -0.4734,-3.39992 -0.91939,-5.78272 -2.10813,-10.9395 -1.13204,-4.70218 -2.68498,-9.83908 -3.45409,-14.23766 -1.57605,-8.35237 -1.57841,-10.50658 -1.66165,-15.076431 0.0725,-5.67706 0.49861,-10.1902 1.26935,-15.52289 1.05671,-5.17426 2.20588,-8.948 3.07766,-12.74507 0.77598,-2.71118 1.55196,-5.74845 2.32794,-8.95156"
       id="path1" /><path
       style="fill:none;fill-opacity:1;fill-rule:nonzero;stroke:#2f4f4f;stroke-width:4.59999;stroke-dasharray:none;stroke-opacity:1"
       d="m 110.24626,166.05728 c 0.6308,-2.38715 1.6009,-5.78212 2.6993,-7.74197 1.68296,-3.01039 5.33644,-6.02581 9.24657,-8.8655 3.76888,-3.05137 4.32957,-4.55597 6.70512,-8.90186"
       id="path2" /><path
       style="fill:none;fill-opacity:1;fill-rule:nonzero;stroke:#2f4f4f;stroke-width:4.59999;stroke-dasharray:none;stroke-opacity:1"
       d="m 74.342462,194.45548 c 4.77011,0.17397 7.42339,-1.27643 10.17123,-4.76199 3.34673,-4.65387 5.49881,-9.6727 7.25856,-15.07192 1.86986,-6.30813 2.83459,-13.04511 2.49658,-20.25 -0.0713,-7.75549 -1.86922,-14.36873 -3.32877,-19.23287 -2.51559,-6.93493 -7.5633,-14.42466 -11.18836,-21.35959 -3.17184,-7.2089 -4.20555,-12.29399 -5.17808,-16.273981 -1.40968,-6.4115 -1.42263,-13.80849 -1.84931,-19.78767 -0.339,-8.64288 -0.58562,-15.49683 -0.64726,-22.746569 -0.24658,-9.955513 -0.0927,-17.692986 -0.0925,-26.445205"
       id="path3" /><path
       style="fill:none;fill-opacity:1;fill-rule:nonzero;stroke:#2f4f4f;stroke-width:4.59999;stroke-dasharray:none;stroke-opacity:1"
       d="m 94.130132,150.16438 c 0.79661,-3.03283 2.08263,-5.06504 4.85446,-8.92295 3.055408,-3.79997 7.434128,-8.01564 10.957188,-10.67979 5.27152,-3.75739 7.67391,-6.90789 10.72602,-9.84761 2.57465,-2.74357 7.35856,-9.21631 9.10789,-12.71403 1.72682,-2.91752 2.99396,-5.77957 4.39211,-9.200341"
       id="path4" /><path
       style="fill:none;fill-opacity:1;fill-rule:nonzero;stroke:#2f4f4f;stroke-width:4.59999;stroke-dasharray:none;stroke-opacity:1"
       d="m 74.434932,194.77911 c 2.39216,-3.28662 4.34218,-6.931 4.99315,-10.6798 1.13619,-5.68939 1.12661,-15.89353 1.10959,-22.09931 -0.93374,-13.14085 -2.59091,-17.32052 -4.34589,-23.0702 -1.40087,-5.07489 -3.1295,-8.4486 -4.16096,-11.18836 -2.91461,-7.41718 -8.344338,-12.14207 -13.684932,-15.85788 -9.261824,-5.87174 -16.195897,-14.071231 -21.267124,-24.133561 -2.709297,-5.95601 -5.082694,-12.04637 -6.565069,-18.49315 -1.309115,-4.56001 -2.327436,-8.26104 -3.051368,-12.575344"
       id="path5" /><path
       style="fill:none;fill-opacity:1;fill-rule:nonzero;stroke:#2f4f4f;stroke-width:4.59999;stroke-dasharray:none;stroke-opacity:1"
       d="m 77.856172,194.43236 c -5.7107,0.49625 -10.710455,-0.60789 -16.181515,-1.8262 -7.622812,-1.82411 -12.836533,-6.14977 -17.383561,-11.09589 -3.089288,-3.93174 -5.463765,-5.63875 -7.119863,-18.67808 -0.537176,-5.40044 -0.429665,-11.91175 0.369863,-14.60959 0.768168,-2.86961 2.088593,-7.80767 2.496574,-12.29794 0.2468,-3.17511 0.05361,-6.57983 -0.18493,-9.33904"
       id="path6" /><path
       style="fill:none;fill-opacity:1;fill-rule:nonzero;stroke:#2f4f4f;stroke-width:4.59999;stroke-dasharray:none;stroke-opacity:1"
       d="m 67.499999,193.80822 c -4.553163,-4.79424 -7.109586,-10.398 -9.246576,-16.22775 -1.127156,-3.51745 -3.543574,-9.02062 -5.288337,-13.35801 -1.851683,-4.38743 -6.398539,-9.57444 -9.876045,-13.31835 -5.028534,-4.61326 -10.356576,-9.2024 -14.239727,-15.16439 -5.28228,-6.86989 -6.697613,-12.35739 -8.506848,-18.67808 -1.806414,-6.34253 -2.966125,-9.9785 -4.068493,-14.23972"
       id="path7" /><path
       style="fill:none;fill-opacity:1;fill-rule:nonzero;stroke:#2f4f4f;stroke-width:4.59999;stroke-dasharray:none;stroke-opacity:1"
       d="m 71.753422,194.36301 c -2.75781,-8.1465 -3.950466,-13.63223 -4.99315,-18.86301 -1.997612,-9.77205 -0.387055,-16.24169 1.089078,-22.55043 2.815286,-9.44936 6.735192,-15.40076 10.561612,-21.6482 2.39346,-3.78481 7.38655,-11.63116 9.24657,-18.67808 2.78954,-12.12294 2.73822,-13.976051 2.86644,-20.527401 l -0.27736,-6.75"
       id="path8" /><path
       style="fill:none;fill-opacity:1;fill-rule:nonzero;stroke:#2f4f4f;stroke-width:4.59999;stroke-dasharray:none;stroke-opacity:1"
       d="M 57.046722,174.25731 C 54.551645,164.17395 54.3017,155.29895 56.399463,145.96279 59.01325,133.69796 59.086751,126.27216 59.363013,118.44863 59.79839,108.20801 58.373031,100.20941 57.606165,92.373279 56.8592,85.124699 55.841384,81.768229 54.647261,77.393829"
       id="path9" /></g><g
     id="layer3"
     style="fill:#d2b48c;fill-opacity:1;stroke:#d2b48c;stroke-opacity:1"><path
       style="fill:#d2b48c;fill-opacity:1;fill-rule:nonzero;stroke:#d2b48c;stroke-width:4.6;stroke-dasharray:none;stroke-opacity:1"
       d="m 21.821918,36.246573 c -5.189595,1.904089 -9.560007,5.546813 -12.6678101,10.818494 -2.709599,5.298642 -2.702497,7.325785 -2.681505,10.263699 0.412979,5.005533 3.9145231,5.840543 8.1369851,5.363013 9.493151,-2.5274 19.823496,-3.88272 28.479453,-7.582192 C 47.388418,52.443548 46.860249,47.165901 44.691326,44.4358 41.862038,40.924096 40.179272,39.97912 37.171233,38.28082 30.329455,34.554424 25.65183,34.838715 21.821918,36.246573 Z"
       id="path10" /><path
       style="fill:#d2b48c;fill-opacity:1;fill-rule:nonzero;stroke:#d2b48c;stroke-width:5.18111;stroke-dasharray:none;stroke-opacity:1"
       d="m 71.329292,3.6716335 c -7.00072,0.423573 -13.366197,3.317112 -17.530816,8.6560625 -3.264865,4.12602 -4.074788,6.385913 -4.833768,10.371875 -1.076305,5.979268 2.911834,7.816313 7.466888,8.047392 l 33.127406,-0.72887 c 7.3237,-0.309001 5.9461,-6.539657 5.511,-8.258956 -1.51922,-6.30431 -4.67486,-9.105945 -7.51062,-11.7691715 -5.53118,-5.235146 -12.71485,-6.290933 -16.23009,-6.318332 z"
       id="path11" /><path
       style="fill:#d2b48c;fill-opacity:1;fill-rule:nonzero;stroke:#d2b48c;stroke-width:4.06112;stroke-dasharray:none;stroke-opacity:1"
       d="m 114.69041,40.460147 c -3.77058,-0.4467 -9.46502,0.06333 -13.78533,4.385962 -2.895168,2.873669 -4.448458,4.92333 -5.476488,7.496252 -1.56864,4.611734 1.11097,6.259078 4.606158,7.337338 l 25.05224,3.62167 c 4.8552,0.53242 5.35882,-4.26754 5.19884,-5.859742 -0.53765,-4.533407 -2.30299,-7.758525 -3.84059,-10.494522 -2.99032,-4.426578 -7.56449,-6.042509 -11.75483,-6.486958 z"
       id="path11-2" /><path
       style="fill:#d2b48c;fill-opacity:1;fill-rule:nonzero;stroke:#d2b48c;stroke-width:3.14596;stroke-dasharray:none;stroke-opacity:1"
       d="m 138.49687,84.927369 c -1.65713,-0.53427 -3.94358,-0.56112 -6.37013,-0.14074 -1.63724,0.28364 -3.33827,0.77089 -4.95282,1.44324 -2.59879,0.92336 -4.90604,3.29177 -5.60628,4.52892 -1.49947,3.15755 0.0242,4.92686 2.73652,6.23351 6.56027,2.7761 12.41502,5.023061 18.29738,7.290731 4.14769,0.9996 5.0295,-3.27044 5.05102,-3.33593 0.69561,-3.136321 -0.46154,-6.176381 -1.42027,-8.324061 -2.08738,-4.993 -5.63935,-7.02849 -7.73542,-7.69567 z"
       id="path11-2-0" /><path
       style="fill:#d2b48c;fill-opacity:1;fill-rule:nonzero;stroke:#d2b48c;stroke-width:2.87575;stroke-dasharray:none;stroke-opacity:1"
       d="m 11.508068,91.282969 c -2.6497321,1.05607 -6.1948271,4.75276 -7.2612681,6.76755 -2.028711,3.052521 -1.969065,5.329761 -1.734279,6.631911 0.22319,2.21775 2.062125,4.25146 5.492834,3.19353 L 25.69488,102.01069 c 3.577047,-1.48466 2.500609,-3.938851 1.915102,-5.352271 -1.554989,-2.85684 -3.702291,-3.97694 -5.866426,-5.02769 -2.638532,-1.35945 -6.890154,-1.50208 -10.235488,-0.34776 z"
       id="path11-2-0-6" /></g></svg>
